<svg width="431.69755859375px" height="122.02138671875px" xmlns="http://www.w3.org/2000/svg" viewBox="34.151220703125006 13.989306640625003 431.69755859375 122.02138671875" style="background:#051103" preserveAspectRatio="xMidYMid"><defs><linearGradient id="editing-glowing-gradient" x1="0.8146601955249185" x2="0.18533980447508147" y1="0.8885729807284856" y2="0.11142701927151444"><stop offset="0" stop-color="#67ff43"></stop><stop offset="1" stop-color="#90ffff"></stop></linearGradient><filter id="editing-glowing" x="-100%" y="-100%" width="300%" height="300%"><feGaussianBlur in="SourceGraphic" result="blur" stdDeviation="10"></feGaussianBlur><feMerge><feMergeNode in="blur"></feMergeNode><feMergeNode in="SourceGraphic"></feMergeNode></feMerge></filter></defs><g filter="url(#editing-glowing)"><g transform="translate(98.4800066947937, 102.83218765258789)"><path d="M27.01-20.61L39.94-21.76L39.94-21.76Q35.33-11.65 35.33 0.06L35.33 0.06L35.33 0.06Q33.60 1.28 31.07 1.28L31.07 1.28L31.07 1.28Q28.54 1.28 26.94 0.10L26.94 0.10L26.94 0.10Q25.34-1.09 25.02-2.30L25.02-2.30L25.02-2.30Q23.42-0.64 20.83 0.32L20.83 0.32L20.83 0.32Q18.24 1.28 15.49 1.28L15.49 1.28L15.49 1.28Q12.74 1.28 10.34 0.38L10.34 0.38L10.34 0.38Q7.94-0.51 6.08-2.50L6.08-2.50L6.08-2.50Q1.98-6.85 1.98-15.10L1.98-15.10L1.98-15.10Q1.98-27.90 8.83-35.58L8.83-35.58L8.83-35.58Q15.87-43.52 28.35-43.52L28.35-43.52L28.35-43.52Q36.99-43.52 40.06-39.04L40.06-39.04L40.06-39.04Q41.02-37.63 41.02-35.94L41.02-35.94L41.02-35.94Q41.02-34.24 40.29-32.80L40.29-32.80L40.29-32.80Q39.55-31.36 38.40-30.21L38.40-30.21L38.40-30.21Q35.65-27.65 32.26-27.65L32.26-27.65L32.26-27.65Q30.91-27.65 29.63-28.10L29.63-28.10L29.63-28.10Q29.89-30.02 29.89-32.26L29.89-32.26L29.89-32.26Q29.89-34.50 29.73-35.52L29.73-35.52L29.73-35.52Q29.57-36.54 29.18-37.38L29.18-37.38L29.18-37.38Q28.35-39.10 26.53-39.10L26.53-39.10L26.53-39.10Q24.70-39.10 22.69-37.15L22.69-37.15L22.69-37.15Q20.67-35.20 19.07-32L19.07-32L19.07-32Q15.55-24.83 15.55-16.19L15.55-16.19L15.55-16.19Q15.55-12.22 17.09-9.41L17.09-9.41L17.09-9.41Q18.75-6.34 21.70-6.34L21.70-6.34L21.70-6.34Q22.72-6.34 23.65-6.85L23.65-6.85L23.65-6.85Q24.58-7.36 24.96-7.74L24.96-7.74L27.01-20.61ZM71.17 1.28L71.17 1.28L71.17 1.28Q62.98 1.28 62.21-10.37L62.21-10.37L51.20-10.37L51.20-10.37Q49.92-7.42 49.02-4.86L49.02-4.86L47.36 0L38.40 0L58.56-42.24L72.32-42.24L75.01-11.14L75.01-11.14Q75.65-4.42 78.21-2.43L78.21-2.43L78.21-2.43Q76.35 1.28 71.17 1.28ZM56.70-23.17L53.18-15.04L62.02-15.04L61.25-31.49L61.25-33.22L56.70-23.17ZM87.36 0L80 0L91.58-42.24L104.96-42.24L107.90-18.11L119.81-42.24L131.01-42.24L132.16-10.62L132.16-10.62Q132.42-4.35 135.49-2.43L135.49-2.43L135.49-2.43Q134.78-1.15 132.74 0.06L132.74 0.06L132.74 0.06Q130.69 1.28 127.97 1.28L127.97 1.28L127.97 1.28Q125.25 1.28 123.65 0.51L123.65 0.51L123.65 0.51Q122.05-0.26 121.15-1.54L121.15-1.54L121.15-1.54Q119.55-3.84 119.55-8.26L119.55-8.26L119.55-28.03L106.94 0L99.01 0L94.53-28.74L87.36 0ZM165.57-9.86L165.57-9.86L165.57-9.86Q166.78-8.32 166.78-5.82L166.78-5.82L166.78-5.82Q166.78-2.37 164.22-0.54L164.22-0.54L164.22-0.54Q161.66 1.28 157.63 1.28L157.63 1.28L157.63 1.28Q155.33 1.28 151.81 0.77L151.81 0.77L151.81 0.77Q144.90-0.32 142.78-0.32L142.78-0.32L142.78-0.32Q140.67-0.32 139.84-0.22L139.84-0.22L139.84-0.22Q139.01-0.13 137.66 0L137.66 0L145.54-42.24L173.12-42.24L173.12-42.24Q173.12-38.34 171.23-36.29L171.23-36.29L171.23-36.29Q169.34-34.24 165.63-34.24L165.63-34.24L165.63-34.24Q161.92-34.24 158.14-35.97L158.14-35.97L156.16-24.77L167.55-24.77L167.55-24.77Q167.55-21.38 165.89-19.49L165.89-19.49L165.89-19.49Q164.22-17.60 161.44-17.60L161.44-17.60L161.44-17.60Q158.66-17.60 156.93-18.24L156.93-18.24L156.93-18.24Q155.20-18.88 155.01-19.07L155.01-19.07L152.70-6.98L152.70-6.98Q154.24-6.78 157.12-6.78L157.12-6.78L157.12-6.78Q162.05-6.78 165.57-9.86ZM177.79 8.83L177.79 8.83L177.79 8.83Q181.06 8.45 183.10 4.22L183.10 4.22L183.10 4.22Q185.22-0.06 187.14-9.92L187.14-9.92L193.34-42.24L207.23-42.24L201.02-9.92L201.02-9.92Q198.66 2.62 194.75 7.55L194.75 7.55L194.75 7.55Q192.70 10.11 190.11 11.14L190.11 11.14L190.11 11.14Q187.52 12.16 184.70 12.16L184.70 12.16L184.70 12.16Q181.89 12.16 180.06 11.14L180.06 11.14L180.06 11.14Q178.24 10.11 177.79 8.83ZM236.74 1.28L236.74 1.28L236.74 1.28Q228.54 1.28 227.78-10.37L227.78-10.37L216.77-10.37L216.77-10.37Q215.49-7.42 214.59-4.86L214.59-4.86L212.93 0L203.97 0L224.13-42.24L237.89-42.24L240.58-11.14L240.58-11.14Q241.22-4.42 243.78-2.43L243.78-2.43L243.78-2.43Q241.92 1.28 236.74 1.28ZM222.27-23.17L218.75-15.04L227.58-15.04L226.82-31.49L226.82-33.22L222.27-23.17ZM252.93 0L245.57 0L257.15-42.24L270.53-42.24L273.47-18.11L285.38-42.24L296.58-42.24L297.73-10.62L297.73-10.62Q297.98-4.35 301.06-2.43L301.06-2.43L301.06-2.43Q300.35-1.15 298.30 0.06L298.30 0.06L298.30 0.06Q296.26 1.28 293.54 1.28L293.54 1.28L293.54 1.28Q290.82 1.28 289.22 0.51L289.22 0.51L289.22 0.51Q287.62-0.26 286.72-1.54L286.72-1.54L286.72-1.54Q285.12-3.84 285.12-8.26L285.12-8.26L285.12-28.03L272.51 0L264.58 0L260.10-28.74L252.93 0Z" fill="url(#editing-glowing-gradient)"></path></g></g><style>text {
  font-size: 64px;
  font-family: Arial Black;
  dominant-baseline: central;
  text-anchor: middle;
}</style></svg>